<mxfile host="65bd71144e">
    <diagram id="Si-sC2ozJAeM9gjHa80H" name="Page-1">
        <mxGraphModel dx="1074" dy="684" grid="1" gridSize="10" guides="1" tooltips="1" connect="1" arrows="1" fold="1" page="1" pageScale="1" pageWidth="850" pageHeight="1100" math="0" shadow="0">
            <root>
                <mxCell id="0"/>
                <mxCell id="1" parent="0"/>
                <mxCell id="5" value="" style="endArrow=classic;html=1;exitX=0.5;exitY=1;exitDx=0;exitDy=0;exitPerimeter=0;entryX=0.5;entryY=0;entryDx=0;entryDy=0;" parent="1" source="7" target="8" edge="1">
                    <mxGeometry width="50" height="50" relative="1" as="geometry">
                        <mxPoint x="392.5" y="390" as="sourcePoint"/>
                        <mxPoint x="580" y="200" as="targetPoint"/>
                        <Array as="points"/>
                    </mxGeometry>
                </mxCell>
                <mxCell id="7" value="Start" style="strokeWidth=2;html=1;shape=mxgraph.flowchart.terminator;whiteSpace=wrap;" parent="1" vertex="1">
                    <mxGeometry x="530" y="100" width="100" height="60" as="geometry"/>
                </mxCell>
                <mxCell id="8" value="Check radio box&lt;br&gt;for pizza size" style="shape=parallelogram;html=1;strokeWidth=2;perimeter=parallelogramPerimeter;whiteSpace=wrap;rounded=1;arcSize=12;size=0.23;" parent="1" vertex="1">
                    <mxGeometry x="520" y="190" width="120" height="70" as="geometry"/>
                </mxCell>
                <mxCell id="9" value="Check radio box&lt;br&gt;for # of toppings" style="shape=parallelogram;html=1;strokeWidth=2;perimeter=parallelogramPerimeter;whiteSpace=wrap;rounded=1;arcSize=12;size=0.23;" parent="1" vertex="1">
                    <mxGeometry x="510" y="280" width="140" height="80" as="geometry"/>
                </mxCell>
                <mxCell id="10" value="" style="endArrow=classic;html=1;exitX=0.5;exitY=1;exitDx=0;exitDy=0;entryX=0.5;entryY=0;entryDx=0;entryDy=0;" parent="1" source="8" target="9" edge="1">
                    <mxGeometry width="50" height="50" relative="1" as="geometry">
                        <mxPoint x="690" y="280" as="sourcePoint"/>
                        <mxPoint x="690" y="310" as="targetPoint"/>
                        <Array as="points"/>
                    </mxGeometry>
                </mxCell>
                <mxCell id="12" value="" style="edgeStyle=elbowEdgeStyle;elbow=horizontal;endArrow=classic;html=1;entryX=0.5;entryY=0;entryDx=0;entryDy=0;entryPerimeter=0;" parent="1" source="9" target="14" edge="1">
                    <mxGeometry width="50" height="50" relative="1" as="geometry">
                        <mxPoint x="380" y="390" as="sourcePoint"/>
                        <mxPoint x="500" y="290" as="targetPoint"/>
                        <Array as="points">
                            <mxPoint x="470" y="290"/>
                            <mxPoint x="450" y="300"/>
                        </Array>
                    </mxGeometry>
                </mxCell>
                <mxCell id="14" value="if&amp;nbsp; (sizeLarge&lt;br&gt;== true)" style="strokeWidth=2;html=1;shape=mxgraph.flowchart.decision;whiteSpace=wrap;" parent="1" vertex="1">
                    <mxGeometry x="400" y="320" width="100" height="100" as="geometry"/>
                </mxCell>
                <mxCell id="15" value="" style="endArrow=classic;html=1;exitX=0;exitY=0.5;exitDx=0;exitDy=0;exitPerimeter=0;entryX=1;entryY=0.5;entryDx=0;entryDy=0;" parent="1" source="14" target="16" edge="1">
                    <mxGeometry width="50" height="50" relative="1" as="geometry">
                        <mxPoint x="260" y="410" as="sourcePoint"/>
                        <mxPoint x="370" y="370" as="targetPoint"/>
                        <Array as="points"/>
                    </mxGeometry>
                </mxCell>
                <mxCell id="16" value="&lt;span&gt;if&amp;nbsp; (sizeLarge&lt;/span&gt;&lt;br&gt;&lt;span&gt;== false)&lt;/span&gt;" style="rhombus;whiteSpace=wrap;html=1;" parent="1" vertex="1">
                    <mxGeometry x="270" y="320" width="100" height="100" as="geometry"/>
                </mxCell>
                <mxCell id="17" value="No" style="text;html=1;align=center;verticalAlign=middle;resizable=0;points=[];autosize=1;strokeColor=none;fillColor=none;" parent="1" vertex="1">
                    <mxGeometry x="370" y="340" width="30" height="20" as="geometry"/>
                </mxCell>
                <mxCell id="18" value="" style="edgeStyle=segmentEdgeStyle;endArrow=classic;html=1;exitX=0;exitY=0.5;exitDx=0;exitDy=0;entryX=0.5;entryY=0;entryDx=0;entryDy=0;" parent="1" source="16" target="20" edge="1">
                    <mxGeometry width="50" height="50" relative="1" as="geometry">
                        <mxPoint x="170" y="390" as="sourcePoint"/>
                        <mxPoint x="210" y="480" as="targetPoint"/>
                    </mxGeometry>
                </mxCell>
                <mxCell id="19" value="No" style="text;html=1;align=center;verticalAlign=middle;resizable=0;points=[];autosize=1;strokeColor=none;fillColor=none;" parent="1" vertex="1">
                    <mxGeometry x="220" y="340" width="30" height="20" as="geometry"/>
                </mxCell>
                <mxCell id="20" value="size=0" style="shape=parallelogram;html=1;strokeWidth=2;perimeter=parallelogramPerimeter;whiteSpace=wrap;rounded=1;arcSize=12;size=0.23;" parent="1" vertex="1">
                    <mxGeometry x="130" y="470" width="120" height="70" as="geometry"/>
                </mxCell>
                <mxCell id="21" value="size=10.0" style="shape=parallelogram;html=1;strokeWidth=2;perimeter=parallelogramPerimeter;whiteSpace=wrap;rounded=1;arcSize=12;size=0.23;" parent="1" vertex="1">
                    <mxGeometry x="260" y="470" width="120" height="70" as="geometry"/>
                </mxCell>
                <mxCell id="22" value="size=6.0" style="shape=parallelogram;html=1;strokeWidth=2;perimeter=parallelogramPerimeter;whiteSpace=wrap;rounded=1;arcSize=12;size=0.23;" parent="1" vertex="1">
                    <mxGeometry x="390" y="470" width="120" height="70" as="geometry"/>
                </mxCell>
                <mxCell id="23" value="" style="endArrow=classic;html=1;exitX=0.5;exitY=1;exitDx=0;exitDy=0;entryX=0.5;entryY=0;entryDx=0;entryDy=0;" parent="1" source="16" target="21" edge="1">
                    <mxGeometry width="50" height="50" relative="1" as="geometry">
                        <mxPoint x="370" y="460" as="sourcePoint"/>
                        <mxPoint x="420" y="410" as="targetPoint"/>
                    </mxGeometry>
                </mxCell>
                <mxCell id="24" value="" style="endArrow=classic;html=1;entryX=0.5;entryY=0;entryDx=0;entryDy=0;" parent="1" target="22" edge="1">
                    <mxGeometry width="50" height="50" relative="1" as="geometry">
                        <mxPoint x="450" y="420" as="sourcePoint"/>
                        <mxPoint x="449.5" y="460" as="targetPoint"/>
                    </mxGeometry>
                </mxCell>
                <mxCell id="25" value="Yes" style="text;html=1;align=center;verticalAlign=middle;resizable=0;points=[];autosize=1;strokeColor=none;fillColor=none;" parent="1" vertex="1">
                    <mxGeometry x="480" y="410" width="40" height="20" as="geometry"/>
                </mxCell>
                <mxCell id="27" value="Yes" style="text;html=1;align=center;verticalAlign=middle;resizable=0;points=[];autosize=1;strokeColor=none;fillColor=none;" parent="1" vertex="1">
                    <mxGeometry x="270" y="410" width="40" height="20" as="geometry"/>
                </mxCell>
                <mxCell id="33" value="" style="edgeStyle=segmentEdgeStyle;endArrow=classic;html=1;exitX=0.425;exitY=1.014;exitDx=0;exitDy=0;exitPerimeter=0;" parent="1" source="20" edge="1">
                    <mxGeometry width="50" height="50" relative="1" as="geometry">
                        <mxPoint x="180" y="550" as="sourcePoint"/>
                        <mxPoint x="320" y="610" as="targetPoint"/>
                        <Array as="points">
                            <mxPoint x="180" y="541"/>
                            <mxPoint x="180" y="570"/>
                            <mxPoint x="320" y="570"/>
                            <mxPoint x="320" y="610"/>
                        </Array>
                    </mxGeometry>
                </mxCell>
                <mxCell id="34" value="" style="endArrow=classic;html=1;exitX=0.5;exitY=1;exitDx=0;exitDy=0;" parent="1" source="21" edge="1">
                    <mxGeometry width="50" height="50" relative="1" as="geometry">
                        <mxPoint x="330" y="600" as="sourcePoint"/>
                        <mxPoint x="320" y="610" as="targetPoint"/>
                    </mxGeometry>
                </mxCell>
                <mxCell id="35" value="" style="edgeStyle=segmentEdgeStyle;endArrow=classic;html=1;exitX=0.5;exitY=1;exitDx=0;exitDy=0;entryX=0.5;entryY=0;entryDx=0;entryDy=0;entryPerimeter=0;" parent="1" source="22" target="36" edge="1">
                    <mxGeometry width="50" height="50" relative="1" as="geometry">
                        <mxPoint x="390" y="630" as="sourcePoint"/>
                        <mxPoint x="320" y="610" as="targetPoint"/>
                        <Array as="points">
                            <mxPoint x="450" y="570"/>
                            <mxPoint x="320" y="570"/>
                        </Array>
                    </mxGeometry>
                </mxCell>
                <mxCell id="36" value="if&amp;nbsp; (oneTopping&lt;br&gt;== true)" style="strokeWidth=2;html=1;shape=mxgraph.flowchart.decision;whiteSpace=wrap;" parent="1" vertex="1">
                    <mxGeometry x="270" y="610" width="100" height="100" as="geometry"/>
                </mxCell>
                <mxCell id="37" value="" style="endArrow=classic;html=1;exitX=1;exitY=0.5;exitDx=0;exitDy=0;exitPerimeter=0;entryX=0;entryY=0.5;entryDx=0;entryDy=0;entryPerimeter=0;" parent="1" source="36" target="38" edge="1">
                    <mxGeometry width="50" height="50" relative="1" as="geometry">
                        <mxPoint x="430" y="690" as="sourcePoint"/>
                        <mxPoint x="390" y="660" as="targetPoint"/>
                    </mxGeometry>
                </mxCell>
                <mxCell id="38" value="if&amp;nbsp; (twoTopping&lt;br&gt;== true)" style="strokeWidth=2;html=1;shape=mxgraph.flowchart.decision;whiteSpace=wrap;" parent="1" vertex="1">
                    <mxGeometry x="390" y="610" width="100" height="100" as="geometry"/>
                </mxCell>
                <mxCell id="39" value="" style="endArrow=classic;html=1;exitX=1;exitY=0.5;exitDx=0;exitDy=0;exitPerimeter=0;entryX=0;entryY=0.5;entryDx=0;entryDy=0;entryPerimeter=0;" parent="1" source="38" target="40" edge="1">
                    <mxGeometry width="50" height="50" relative="1" as="geometry">
                        <mxPoint x="530" y="660" as="sourcePoint"/>
                        <mxPoint x="520" y="660" as="targetPoint"/>
                    </mxGeometry>
                </mxCell>
                <mxCell id="40" value="if&amp;nbsp; (threeTopping&lt;br&gt;== true)" style="strokeWidth=2;html=1;shape=mxgraph.flowchart.decision;whiteSpace=wrap;" parent="1" vertex="1">
                    <mxGeometry x="510" y="610" width="100" height="100" as="geometry"/>
                </mxCell>
                <mxCell id="41" value="" style="endArrow=classic;html=1;entryX=0;entryY=0.5;entryDx=0;entryDy=0;entryPerimeter=0;exitX=1;exitY=0.5;exitDx=0;exitDy=0;exitPerimeter=0;" parent="1" source="40" target="42" edge="1">
                    <mxGeometry width="50" height="50" relative="1" as="geometry">
                        <mxPoint x="620" y="660" as="sourcePoint"/>
                        <mxPoint x="630" y="659.5" as="targetPoint"/>
                    </mxGeometry>
                </mxCell>
                <mxCell id="42" value="if&amp;nbsp; (fourTopping&lt;br&gt;== true)" style="strokeWidth=2;html=1;shape=mxgraph.flowchart.decision;whiteSpace=wrap;" parent="1" vertex="1">
                    <mxGeometry x="640" y="610" width="100" height="100" as="geometry"/>
                </mxCell>
                <mxCell id="44" value="" style="edgeStyle=segmentEdgeStyle;endArrow=classic;html=1;exitX=1;exitY=0.5;exitDx=0;exitDy=0;exitPerimeter=0;entryX=0.589;entryY=0.02;entryDx=0;entryDy=0;entryPerimeter=0;" parent="1" source="42" target="50" edge="1">
                    <mxGeometry width="50" height="50" relative="1" as="geometry">
                        <mxPoint x="760" y="730" as="sourcePoint"/>
                        <mxPoint x="780" y="740" as="targetPoint"/>
                        <Array as="points">
                            <mxPoint x="780" y="660"/>
                            <mxPoint x="780" y="680"/>
                            <mxPoint x="783" y="680"/>
                        </Array>
                    </mxGeometry>
                </mxCell>
                <mxCell id="45" value="No" style="text;html=1;align=center;verticalAlign=middle;resizable=0;points=[];autosize=1;strokeColor=none;fillColor=none;" parent="1" vertex="1">
                    <mxGeometry x="745" y="630" width="30" height="20" as="geometry"/>
                </mxCell>
                <mxCell id="46" value="toppings&lt;br&gt;= 1.00" style="shape=parallelogram;html=1;strokeWidth=2;perimeter=parallelogramPerimeter;whiteSpace=wrap;rounded=1;arcSize=12;size=0.23;" parent="1" vertex="1">
                    <mxGeometry x="265" y="740" width="110" height="60" as="geometry"/>
                </mxCell>
                <mxCell id="47" value="toppings&lt;br&gt;= 1.75" style="shape=parallelogram;html=1;strokeWidth=2;perimeter=parallelogramPerimeter;whiteSpace=wrap;rounded=1;arcSize=12;size=0.23;" parent="1" vertex="1">
                    <mxGeometry x="385" y="735" width="110" height="60" as="geometry"/>
                </mxCell>
                <mxCell id="48" value="toppings&lt;br&gt;= 2.50" style="shape=parallelogram;html=1;strokeWidth=2;perimeter=parallelogramPerimeter;whiteSpace=wrap;rounded=1;arcSize=12;size=0.23;" parent="1" vertex="1">
                    <mxGeometry x="500" y="735" width="105" height="55" as="geometry"/>
                </mxCell>
                <mxCell id="49" value="toppimgs&lt;br&gt;= 3.35" style="shape=parallelogram;html=1;strokeWidth=2;perimeter=parallelogramPerimeter;whiteSpace=wrap;rounded=1;arcSize=12;size=0.23;" parent="1" vertex="1">
                    <mxGeometry x="620" y="732.5" width="110" height="60" as="geometry"/>
                </mxCell>
                <mxCell id="50" value="toppings&lt;br&gt;=0" style="shape=parallelogram;html=1;strokeWidth=2;perimeter=parallelogramPerimeter;whiteSpace=wrap;rounded=1;arcSize=12;size=0.23;" parent="1" vertex="1">
                    <mxGeometry x="740" y="735" width="95" height="55" as="geometry"/>
                </mxCell>
                <mxCell id="51" value="" style="endArrow=classic;html=1;exitX=0.5;exitY=1;exitDx=0;exitDy=0;exitPerimeter=0;entryX=0.5;entryY=0;entryDx=0;entryDy=0;" parent="1" source="36" target="46" edge="1">
                    <mxGeometry width="50" height="50" relative="1" as="geometry">
                        <mxPoint x="210" y="720" as="sourcePoint"/>
                        <mxPoint x="320" y="740" as="targetPoint"/>
                    </mxGeometry>
                </mxCell>
                <mxCell id="52" value="" style="endArrow=classic;html=1;exitX=0.5;exitY=1;exitDx=0;exitDy=0;exitPerimeter=0;entryX=0.5;entryY=0;entryDx=0;entryDy=0;" parent="1" source="38" target="47" edge="1">
                    <mxGeometry width="50" height="50" relative="1" as="geometry">
                        <mxPoint x="470" y="720" as="sourcePoint"/>
                        <mxPoint x="470" y="750" as="targetPoint"/>
                    </mxGeometry>
                </mxCell>
                <mxCell id="53" value="" style="endArrow=classic;html=1;exitX=0.5;exitY=1;exitDx=0;exitDy=0;exitPerimeter=0;entryX=0.591;entryY=0;entryDx=0;entryDy=0;entryPerimeter=0;" parent="1" source="40" target="48" edge="1">
                    <mxGeometry width="50" height="50" relative="1" as="geometry">
                        <mxPoint x="570" y="720" as="sourcePoint"/>
                        <mxPoint x="570" y="750" as="targetPoint"/>
                    </mxGeometry>
                </mxCell>
                <mxCell id="54" value="" style="endArrow=classic;html=1;exitX=0.5;exitY=1;exitDx=0;exitDy=0;exitPerimeter=0;entryX=0.655;entryY=-0.017;entryDx=0;entryDy=0;entryPerimeter=0;" parent="1" source="42" target="49" edge="1">
                    <mxGeometry width="50" height="50" relative="1" as="geometry">
                        <mxPoint x="700" y="720" as="sourcePoint"/>
                        <mxPoint x="700" y="750" as="targetPoint"/>
                    </mxGeometry>
                </mxCell>
                <mxCell id="57" value="total = (size =toppings) *(1 + TAX)" style="rounded=1;whiteSpace=wrap;html=1;absoluteArcSize=1;arcSize=14;strokeWidth=2;" parent="1" vertex="1">
                    <mxGeometry x="40" y="810" width="220" height="70" as="geometry"/>
                </mxCell>
                <mxCell id="58" value="" style="edgeStyle=segmentEdgeStyle;endArrow=classic;html=1;entryX=1;entryY=0.5;entryDx=0;entryDy=0;" parent="1" source="46" target="57" edge="1">
                    <mxGeometry width="50" height="50" relative="1" as="geometry">
                        <mxPoint x="460" y="750" as="sourcePoint"/>
                        <mxPoint x="280" y="850" as="targetPoint"/>
                        <Array as="points">
                            <mxPoint x="380" y="770"/>
                            <mxPoint x="380" y="845"/>
                        </Array>
                    </mxGeometry>
                </mxCell>
                <mxCell id="59" value="" style="edgeStyle=segmentEdgeStyle;endArrow=classic;html=1;entryX=1;entryY=0.5;entryDx=0;entryDy=0;exitX=1;exitY=0.5;exitDx=0;exitDy=0;" parent="1" source="47" target="57" edge="1">
                    <mxGeometry width="50" height="50" relative="1" as="geometry">
                        <mxPoint x="482.3" y="770" as="sourcePoint"/>
                        <mxPoint x="379.9500000000001" y="845" as="targetPoint"/>
                        <Array as="points">
                            <mxPoint x="500" y="765"/>
                            <mxPoint x="500" y="845"/>
                        </Array>
                    </mxGeometry>
                </mxCell>
                <mxCell id="60" value="" style="edgeStyle=segmentEdgeStyle;endArrow=classic;html=1;exitX=1;exitY=0.5;exitDx=0;exitDy=0;entryX=1;entryY=0.5;entryDx=0;entryDy=0;" parent="1" source="48" target="57" edge="1">
                    <mxGeometry width="50" height="50" relative="1" as="geometry">
                        <mxPoint x="602.3499999999999" y="760" as="sourcePoint"/>
                        <mxPoint x="380" y="840" as="targetPoint"/>
                        <Array as="points">
                            <mxPoint x="620" y="765"/>
                            <mxPoint x="620" y="845"/>
                        </Array>
                    </mxGeometry>
                </mxCell>
                <mxCell id="61" value="" style="edgeStyle=segmentEdgeStyle;endArrow=classic;html=1;exitX=1;exitY=0.75;exitDx=0;exitDy=0;entryX=1;entryY=0.5;entryDx=0;entryDy=0;" parent="1" source="49" target="57" edge="1">
                    <mxGeometry width="50" height="50" relative="1" as="geometry">
                        <mxPoint x="717.92" y="760" as="sourcePoint"/>
                        <mxPoint x="374.99500000000006" y="840" as="targetPoint"/>
                        <Array as="points">
                            <mxPoint x="735" y="773"/>
                            <mxPoint x="735" y="845"/>
                        </Array>
                    </mxGeometry>
                </mxCell>
                <mxCell id="62" value="" style="edgeStyle=segmentEdgeStyle;endArrow=classic;html=1;exitX=0.5;exitY=1;exitDx=0;exitDy=0;entryX=0;entryY=0.5;entryDx=0;entryDy=0;" parent="1" source="57" target="63" edge="1">
                    <mxGeometry width="50" height="50" relative="1" as="geometry">
                        <mxPoint x="140" y="890" as="sourcePoint"/>
                        <mxPoint x="240" y="950" as="targetPoint"/>
                        <Array as="points">
                            <mxPoint x="150" y="950"/>
                        </Array>
                    </mxGeometry>
                </mxCell>
                <mxCell id="63" value="Show total cost" style="shape=parallelogram;html=1;strokeWidth=2;perimeter=parallelogramPerimeter;whiteSpace=wrap;rounded=1;arcSize=12;size=0.23;" parent="1" vertex="1">
                    <mxGeometry x="240" y="920" width="120" height="70" as="geometry"/>
                </mxCell>
                <mxCell id="64" value="" style="endArrow=classic;html=1;exitX=1;exitY=0.5;exitDx=0;exitDy=0;entryX=0;entryY=0.5;entryDx=0;entryDy=0;entryPerimeter=0;" parent="1" source="63" target="65" edge="1">
                    <mxGeometry width="50" height="50" relative="1" as="geometry">
                        <mxPoint x="370" y="970" as="sourcePoint"/>
                        <mxPoint x="380" y="955" as="targetPoint"/>
                    </mxGeometry>
                </mxCell>
                <mxCell id="65" value="Stop" style="strokeWidth=2;html=1;shape=mxgraph.flowchart.terminator;whiteSpace=wrap;" parent="1" vertex="1">
                    <mxGeometry x="385" y="925" width="100" height="60" as="geometry"/>
                </mxCell>
                <mxCell id="66" value="" style="edgeStyle=segmentEdgeStyle;endArrow=classic;html=1;exitX=1;exitY=0.75;exitDx=0;exitDy=0;entryX=1;entryY=0.5;entryDx=0;entryDy=0;" edge="1" parent="1" target="57">
                    <mxGeometry width="50" height="50" relative="1" as="geometry">
                        <mxPoint x="822.98" y="770" as="sourcePoint"/>
                        <mxPoint x="560" y="840" as="targetPoint"/>
                        <Array as="points">
                            <mxPoint x="830" y="770"/>
                            <mxPoint x="830" y="845"/>
                        </Array>
                    </mxGeometry>
                </mxCell>
            </root>
        </mxGraphModel>
    </diagram>
</mxfile>